#!OML:ASF I:\Actors\actors\Patient Classification 2\Patient 1\Session 1\actor1.ASF
:FULLY-SPECIFIED
:DEGREES
230
root -0.128538 18.7237 4.63383 0.881158 3.82894 1.13334
lowerback 11.5195 0.566639 7.30823
upperback 2.50978 1.87785 5.63636
thorax -3.78646 0.879492 1.52381
lowerneck -9.98467 -8.61877 -9.38703
upperneck 28.5178 -10.0478 -0.773165
head 11.3974 -5.59375 -0.00429137
rclavicle 2.90226e-014 -3.18055e-014
rhumerus 15.349 -11.8166 -74.9857
rradius 51.0418
rwrist -7.37958
rhand -23.2558 -53.2283
rfingers 7.12502
rthumb 3.19605 -83.1841
lclavicle 2.90226e-014 -3.18055e-014
lhumerus 4.19594 -71.7728 94.8544
lradius 100.48
lwrist 29.918
lhand -15.2696 -11.8338
lfingers 7.12502
lthumb 10.9047 17.8631
rfemur 0 0 0
rtibia 0
rfoot 0 0
rtoes 0
lfemur -9.83616 -1.07691 -16.781
ltibia 24.3866
lfoot -17.6788 9.44977
ltoes -57.1951
231
root -0.122544 18.7251 4.63738 0.930852 3.98516 1.15318
lowerback 11.5559 0.59281 7.46285
upperback 2.51358 1.93982 5.73746
thorax -3.79941 0.908793 1.53552
lowerneck -10.0633 -8.67363 -9.4708
upperneck 28.4495 -10.0895 -0.800295
head 11.3936 -5.62188 -0.00926714
rclavicle -1.74931e-014 5.40694e-014
rhumerus 16.5832 -12.7639 -74.858
rradius 49.5808
rwrist -6.53625
rhand -23.3244 -53.3588
rfingers 7.12502
rthumb 3.12979 -83.3156
lclavicle -1.74931e-014 5.40694e-014
lhumerus 4.499 -72.1111 94.4848
lradius 101.201
lwrist 30.2824
lhand -15.559 -12.1258
lfingers 7.12502
lthumb 10.6256 17.5855
rfemur 0 0 0
rtibia 0
rfoot 0 0
rtoes 0
lfemur -9.93449 -0.966515 -16.8027
ltibia 24.4392
lfoot -17.5758 9.18219
ltoes -57.1953
232
root -0.116722 18.726 4.64052 0.96443 4.23824 1.20731
lowerback 11.6015 0.608287 7.59652
upperback 2.50039 1.98861 5.84325
thorax -3.83663 0.931092 1.5656
lowerneck -10.0317 -8.76742 -9.64161
upperneck 28.3232 -10.2241 -0.672054
head 11.365 -5.68273 0.0486878
rclavicle 1.78906e-014 1.90833e-014
rhumerus 17.7129 -13.605 -74.5401
rradius 48.1413
rwrist -5.8355
rhand -23.5895 -53.7111
rfingers 7.12502
rthumb 2.87376 -83.6715
lclavicle 1.78906e-014 1.90833e-014
lhumerus 4.64336 -72.4866 94.2754
lradius 102.023
lwrist 30.8633
lhand -16.0865 -12.1258
lfingers 7.12502
lthumb 10.1167 17.6109
rfemur 0 0 0
rtibia 0
rfoot 0 0
rtoes 0
lfemur -10.0103 -0.995109 -16.8559
ltibia 24.4802
lfoot -17.4993 8.8849
ltoes -57.1213
233
root -0.110138 18.7266 4.64247 1.0118 4.56171 1.23486
lowerback 11.6447 0.583223 7.793
upperback 2.45331 1.99492 5.94934
thorax -3.90726 0.930475 1.56751
lowerneck -9.89037 -8.84916 -9.78605
upperneck 28.1452 -10.3609 -0.537436
head 11.2938 -5.74191 0.111496
rclavicle 1.19271e-015 6.36111e-015
rhumerus 18.6169 -14.2122 -74.0776
rradius 46.9656
rwrist -5.7382
rhand -23.7223 -53.8459
rfingers 7.12502
rthumb 2.74558 -83.8079
lclavicle 1.19271e-015 6.36111e-015
lhumerus 4.67639 -72.7638 94.1908
lradius 102.784
lwrist 31.5411
lhand -16.329 -12.0765
lfingers 7.12502
lthumb 9.88278 17.6715
rfemur 0 0 0
rtibia 0
rfoot 0 0
rtoes 0
lfemur -10.1163 -1.10179 -16.8865
ltibia 24.5121
lfoot -17.4229 8.61273
ltoes -57.0497
234
root -0.103114 18.7273 4.64314 1.05145 4.86254 1.27353
lowerback 11.7306 0.553583 8.01422
upperback 2.41822 2.00156 6.03041
thorax -3.98709 0.929347 1.52897
lowerneck -9.80791 -8.90809 -9.80866
upperneck 27.9604 -10.452 -0.516212
head 11.2142 -5.78109 0.118888
rclavicle 3.73715e-014 1.08139e-013
rhumerus 19.4252 -14.823 -73.6576
rradius 46.0539
rwrist -6.06065
rhand -23.5276 -53.6937
rfingers 7.12502
rthumb 2.93361 -83.6533
lclavicle 3.73715e-014 1.08139e-013
lhumerus 4.92919 -72.9333 93.9215
lradius 103.427
lwrist 31.9218
lhand -16.4043 -12.3663
lfingers 7.12502
lthumb 9.81011 17.3852
rfemur 0 0 0
rtibia 0
rfoot 0 0
rtoes 0
lfemur -10.23 -1.16114 -16.9432
ltibia 24.5546
lfoot -17.3231 8.4041
ltoes -57.0131
235
root -0.0969397 18.7286 4.64488 1.06349 5.17181 1.30972
lowerback 11.8409 0.541002 8.24511
upperback 2.41562 2.032 6.10212
thorax -4.04454 0.940723 1.47158
lowerneck -9.8498 -9.00246 -9.84889
upperneck 27.8144 -10.5954 -0.428537
head 11.182 -5.83682 0.137739
rclavicle -8.34896e-015 -5.725e-014
rhumerus 20.1841 -15.5662 -73.2833
rradius 45.2926
rwrist -6.52082
rhand -23.3173 -53.6179
rfingers 7.12502
rthumb 3.13669 -83.5746
lclavicle -8.34896e-015 -5.725e-014
lhumerus 5.49498 -73.1147 93.3452
lradius 104.11
lwrist 32.0816
lhand -16.5358 -12.6102
lfingers 7.12502
lthumb 9.68327 17.1473
rfemur 0 0 0
rtibia 0
rfoot 0 0
rtoes 0
lfemur -10.3236 -1.24774 -17.0013
ltibia 24.6146
lfoot -17.224 8.23369
ltoes -57.0328
236
root -0.0913774 18.7299 4.64781 1.06288 5.50248 1.29614
lowerback 11.9404 0.522055 8.51777
upperback 2.40449 2.06042 6.1919
thorax -4.10417 0.950431 1.41089
lowerneck -9.85532 -9.09702 -9.81125
upperneck 27.6619 -10.7263 -0.457623
head 11.1271 -5.89316 0.107062
rclavicle 1.63003e-014 3.81667e-014
rhumerus 20.9188 -16.3061 -72.8802
rradius 44.4738
rwrist -6.9349
rhand -23.2734 -53.6386
rfingers 7.12502
rthumb 3.17909 -83.5947
lclavicle 1.63003e-014 3.81667e-014
lhumerus 6.21154 -73.321 92.5724
lradius 104.836
lwrist 32.2804
lhand -16.5958 -12.6128
lfingers 7.12502
lthumb 9.62532 17.1473
rfemur 0 0 0
rtibia 0
rfoot 0 0
rtoes 0
lfemur -10.4186 -1.34682 -17.0049
ltibia 24.6851
lfoot -17.0996 8.0571
ltoes -57.0751
237
root -0.0867034 18.7307 4.64962 1.07584 5.80712 1.31882
lowerback 12.022 0.523538 8.75781
upperback 2.38332 2.11083 6.27695
thorax -4.16464 0.970957 1.36026
lowerneck -9.71386 -9.18152 -9.69045
upperneck 27.3701 -10.8389 -0.612826
head 10.9761 -5.94828 0.0338327
rclavicle 2.66371e-014 8.26944e-014
rhumerus 21.8013 -17.1883 -72.5564
rradius 43.4184
rwrist -6.94419
rhand -23.1955 -53.8095
rfingers 7.12502
rthumb 3.25434 -83.7644
lclavicle 2.66371e-014 8.26944e-014
lhumerus 6.94357 -73.602 91.7656
lradius 105.581
lwrist 32.594
lhand -16.5407 -12.6975
lfingers 7.12502
lthumb 9.6785 17.0601
rfemur 0 0 0
rtibia 0
rfoot 0 0
rtoes 0
lfemur -10.5303 -1.38192 -17.0459
ltibia 24.7637
lfoot -16.9643 7.85245
ltoes -57.0569
238
root -0.0828405 18.7314 4.65126 1.13045 6.10018 1.37773
lowerback 12.0612 0.527875 8.95688
upperback 2.35076 2.15514 6.35058
thorax -4.21484 0.988915 1.32162
lowerneck -9.59146 -9.24835 -9.66083
upperneck 27.0823 -10.9463 -0.621101
head 10.8463 -5.99321 0.0264204
rclavicle -2.3059e-014 -3.81667e-014
rhumerus 22.791 -18.2326 -72.4324
rradius 42.2383
rwrist -6.4679
rhand -22.8556 -53.8448
rfingers 7.12502
rthumb 3.58256 -83.7944
lclavicle -2.3059e-014 -3.81667e-014
lhumerus 7.74229 -73.9214 90.8325
lradius 106.414
lwrist 32.9271
lhand -16.3847 -12.9031
lfingers 7.12502
lthumb 9.82901 16.8475
rfemur 0 0 0
rtibia 0
rfoot 0 0
rtoes 0
lfemur -10.6804 -1.37759 -17.1195
ltibia 24.8513
lfoot -16.8751 7.61585
ltoes -57.0201
239
root -0.0784954 18.7323 4.65343 1.2006 6.41884 1.41467
lowerback 12.0744 0.526506 9.16431
upperback 2.30452 2.19222 6.4416
thorax -4.26589 1.00299 1.29842
lowerneck -9.52234 -9.30641 -9.63335
upperneck 26.8763 -11.035 -0.633103
head 10.757 -6.03047 0.0156193
rclavicle -1.19271e-015 -4.45278e-014
rhumerus 23.6141 -19.2149 -72.2259
rradius 41.2205
rwrist -6.11897
rhand -22.3699 -53.6512
rfingers 7.12502
rthumb 4.05162 -83.5924
lclavicle -1.19271e-015 -4.45278e-014
lhumerus 8.67259 -74.2678 89.7586
lradius 107.29
lwrist 33.2044
lhand -16.2907 -13.0556
lfingers 7.12502
lthumb 9.91966 16.6907
rfemur 0 0 0
rtibia 0
rfoot 0 0
rtoes 0
lfemur -10.8545 -1.40726 -17.1697
ltibia 24.939
lfoot -16.7893 7.39601
ltoes -57.0529
240
root -0.07458 18.733 4.65532 1.26159 6.76434 1.44275
lowerback 12.0901 0.554204 9.38262
upperback 2.27383 2.27026 6.57391
thorax -4.30129 1.03804 1.30703
lowerneck -9.45256 -9.39537 -9.66935
upperneck 26.6455 -11.1534 -0.646492
head 10.6652 -6.08699 0.0105761
rclavicle -1.07344e-014 -7.95139e-014
rhumerus 24.2297 -20.0751 -71.6796
rradius 40.4738
rwrist -6.38223
rhand -22.1208 -53.7091
rfingers 7.12502
rthumb 4.29216 -83.6456
lclavicle -1.07344e-014 -7.95139e-014
lhumerus 9.95819 -74.6643 88.4952
lradius 108.152
lwrist 33.5194
lhand -16.2302 -13.2247
lfingers 7.12502
lthumb 9.97805 16.5188
rfemur 0 0 0
rtibia 0
rfoot 0 0
rtoes 0
lfemur -11.0194 -1.51655 -17.2089
ltibia 25.0179
lfoot -16.6746 7.21718
ltoes -57.1105
